<?xml version="1.0" standalone="no"?>
<!DOCTYPE svg PUBLIC "-//W3C//DTD SVG 20010904//EN"
 "http://www.w3.org/TR/2001/REC-SVG-20010904/DTD/svg10.dtd">
<svg version="1.0" xmlns="http://www.w3.org/2000/svg"
 width="700.000000pt" height="700.000000pt" viewBox="0 0 700.000000 700.000000"
 preserveAspectRatio="xMidYMid meet">

<g transform="translate(0.000000,700.000000) scale(0.100000,-0.100000)"
fill="#000000" stroke="none">
<path d="M3370 5196 c-110 -64 -887 -513 -1262 -729 l-138 -79 0 -888 0 -888
188 -108 c183 -106 828 -478 1169 -676 l173 -99 297 172 c164 94 508 293 766
441 l467 270 0 888 0 888 -152 88 c-84 48 -322 185 -528 304 -206 119 -481
278 -611 353 -130 76 -238 137 -240 137 -2 0 -60 -33 -129 -74z m796 -493
c359 -208 653 -382 651 -387 -1 -4 -185 -114 -409 -242 l-406 -235 -299 172
c-164 94 -388 223 -498 287 l-199 115 -63 -34 c-84 -45 -99 -57 -87 -68 5 -5
115 -70 244 -144 626 -359 722 -415 722 -423 0 -5 -72 -50 -159 -100 l-158
-92 -40 23 c-22 13 -319 183 -660 379 -341 195 -621 358 -622 363 -2 4 30 27
70 50 39 23 224 129 410 237 l338 195 227 -131 c125 -72 347 -200 494 -284
147 -85 273 -154 280 -154 6 0 45 19 85 42 58 33 71 44 61 54 -7 6 -230 136
-496 289 -265 153 -481 279 -479 281 13 13 315 183 325 184 7 0 308 -170 668
-377z m-1395 -864 c354 -204 650 -377 657 -383 9 -9 12 -58 10 -199 l-3 -187
-485 281 c-267 155 -491 283 -497 286 -10 4 -13 -17 -13 -84 0 -73 3 -93 18
-105 9 -8 234 -140 500 -293 l482 -279 0 -478 c0 -263 -2 -478 -5 -478 -4 0
-772 445 -1215 704 l-105 62 -3 187 c-2 129 1 187 8 187 6 0 192 -105 413
-234 512 -297 563 -326 570 -326 13 0 8 177 -5 188 -7 5 -125 75 -263 154
-137 80 -357 207 -487 283 l-238 137 0 474 c0 261 4 474 8 474 5 0 299 -167
653 -371z m2117 -391 l-3 -762 -160 -93 -160 -94 -3 571 c-1 313 -5 570 -8
570 -3 0 -41 -21 -84 -46 l-80 -46 0 -576 -1 -577 -156 -90 c-86 -49 -160 -91
-165 -93 -4 -2 -8 253 -8 567 0 314 -2 571 -5 571 -3 0 -42 -21 -85 -46 l-80
-46 0 -576 0 -577 -156 -90 c-85 -49 -160 -92 -165 -93 -6 -2 -8 290 -7 764
l3 768 270 156 c149 86 378 219 510 295 132 76 303 175 380 221 77 45 146 83
153 83 10 1 12 -154 10 -761z"/>
</g>
</svg>
